/* XPM */
static char * icon_xpm[] = {
"51 49 774 2",
"  	c None",
". 	c #FDBEC7",
"+ 	c #FB909F",
"@ 	c #FB8F9F",
"# 	c #FB8595",
"$ 	c #FB8394",
"% 	c #FA8293",
"& 	c #FA8494",
"* 	c #FCA2AF",
"= 	c #FB8F9E",
"- 	c #FB8696",
"; 	c #F96277",
"> 	c #F8415B",
", 	c #F8314E",
"' 	c #F8324E",
") 	c #F8334F",
"! 	c #F83854",
"~ 	c #F82342",
"{ 	c #D60E2A",
"] 	c #CD3C51",
"^ 	c #FCE9EC",
"/ 	c #F4A5B1",
"( 	c #FA7A8D",
"_ 	c #FCBAC4",
": 	c #EC4058",
"< 	c #C83A4E",
"[ 	c #F7BCC4",
"} 	c #FC95A3",
"| 	c #FA6278",
"1 	c #F71B3A",
"2 	c #F60627",
"3 	c #F60225",
"4 	c #F60224",
"5 	c #F70326",
"6 	c #F40326",
"7 	c #B7011B",
"8 	c #9C2334",
"9 	c #DD5064",
"0 	c #F996A4",
"a 	c #FA3C57",
"b 	c #F71434",
"c 	c #F60C2D",
"d 	c #FA0C2E",
"e 	c #C20923",
"f 	c #B53A4B",
"g 	c #FB96A4",
"h 	c #FA566E",
"i 	c #F60E2F",
"j 	c #F60325",
"k 	c #F60527",
"l 	c #F60628",
"m 	c #F70628",
"n 	c #F40628",
"o 	c #AA0119",
"p 	c #7C1A28",
"q 	c #D04D60",
"r 	c #ED9DA8",
"s 	c #FB3551",
"t 	c #F60426",
"u 	c #F70427",
"v 	c #F50527",
"w 	c #B5021B",
"x 	c #7C2531",
"y 	c #E78592",
"z 	c #FAA2AE",
"A 	c #FA687C",
"B 	c #F71435",
"C 	c #F50628",
"D 	c #A40118",
"E 	c #6C1824",
"F 	c #C64A5B",
"G 	c #F17587",
"H 	c #F17E8E",
"I 	c #E86C7E",
"J 	c #DB5769",
"K 	c #FDE0E4",
"L 	c #F71232",
"M 	c #AD031B",
"N 	c #621D26",
"O 	c #C44456",
"P 	c #F82946",
"Q 	c #F60729",
"R 	c #F90629",
"S 	c #EC0627",
"T 	c #830013",
"U 	c #5D1620",
"V 	c #C44A5B",
"W 	c #EC8998",
"X 	c #F893A1",
"Y 	c #F8667A",
"Z 	c #FA455F",
"` 	c #CE283F",
" .	c #B64858",
"..	c #FA314D",
"+.	c #F80628",
"@.	c #F10627",
"#.	c #940217",
"$.	c #4D1820",
"%.	c #B74051",
"&.	c #F93953",
"*.	c #F60528",
"=.	c #FB0629",
"-.	c #C80420",
";.	c #4E040E",
">.	c #5F1F28",
",.	c #C64A5C",
"'.	c #E96E7F",
").	c #F57E8F",
"!.	c #F9314D",
"~.	c #F6092B",
"{.	c #F9072A",
"].	c #E50222",
"^.	c #9A2131",
"/.	c #D64C5F",
"(.	c #F57386",
"_.	c #F91B3A",
":.	c #FA0629",
"<.	c #E30625",
"[.	c #6C0312",
"}.	c #531D25",
"|.	c #BB4152",
"1.	c #F8324F",
"2.	c #F90628",
"3.	c #DA0624",
"4.	c #700110",
"5.	c #3E0A11",
"6.	c #7D303B",
"7.	c #E36476",
"8.	c #F83E59",
"9.	c #F60326",
"0.	c #F80527",
"a.	c #EB0424",
"b.	c #930D20",
"c.	c #A03E4B",
"d.	c #DD3951",
"e.	c #EE0F2E",
"f.	c #F7082A",
"g.	c #C1041E",
"h.	c #450710",
"i.	c #692730",
"j.	c #C94759",
"k.	c #F96478",
"l.	c #F82140",
"m.	c #E50625",
"n.	c #7B0313",
"o.	c #38080E",
"p.	c #531F27",
"q.	c #A13D4C",
"r.	c #D84C5F",
"s.	c #F91E3E",
"t.	c #EB0525",
"u.	c #83081A",
"v.	c #7C303A",
"w.	c #F19BA7",
"x.	c #C95060",
"y.	c #CC1831",
"z.	c #FD062A",
"A.	c #7C0213",
"B.	c #351015",
"C.	c #87313D",
"D.	c #DE4F64",
"E.	c #F6425B",
"F.	c #F71D3C",
"G.	c #DA0524",
"H.	c #7D0113",
"I.	c #39050B",
"J.	c #4F1E25",
"K.	c #883441",
"L.	c #CC3D51",
"M.	c #F31232",
"N.	c #F80729",
"O.	c #EA0526",
"P.	c #7B0717",
"Q.	c #6B2A33",
"R.	c #DC4E62",
"S.	c #E15669",
"T.	c #A92A3C",
"U.	c #DB0321",
"V.	c #F30527",
"W.	c #EF0627",
"X.	c #A5031A",
"Y.	c #3A060D",
"Z.	c #4F1F26",
"`.	c #AA3D4D",
" +	c #F7415A",
".+	c #F81C3C",
"++	c #C60520",
"@+	c #660110",
"#+	c #38080F",
"$+	c #49171E",
"%+	c #81323E",
"&+	c #CB4F61",
"*+	c #FEE3E6",
"=+	c #F87386",
"-+	c #BB4959",
";+	c #D20D28",
">+	c #F90427",
",+	c #DF0524",
"'+	c #660714",
")+	c #682A33",
"!+	c #D84E61",
"~+	c #B04554",
"{+	c #7B1322",
"]+	c #8D0014",
"^+	c #780212",
"/+	c #3D040C",
"(+	c #37151A",
"_+	c #7E2F3A",
":+	c #D04C5F",
"<+	c #F01937",
"[+	c #F30B2C",
"}+	c #F30628",
"|+	c #DB0524",
"1+	c #A6031A",
"2+	c #56030F",
"3+	c #370B11",
"4+	c #502027",
"5+	c #82333F",
"6+	c #C34D5E",
"7+	c #FDDCE1",
"8+	c #FC95A4",
"9+	c #F94F67",
"0+	c #F2203E",
"a+	c #E13D55",
"b+	c #FEE8EB",
"c+	c #D75668",
"d+	c #8C2C39",
"e+	c #D1021F",
"f+	c #F40627",
"g+	c #B8031C",
"h+	c #440811",
"i+	c #742E38",
"j+	c #D95063",
"k+	c #E25468",
"l+	c #8B3642",
"m+	c #40161C",
"n+	c #300F14",
"o+	c #3A171C",
"p+	c #692831",
"q+	c #B34353",
"r+	c #C02238",
"s+	c #B3021B",
"t+	c #D10421",
"u+	c #DA0523",
"v+	c #DB0523",
"w+	c #BE051F",
"x+	c #870215",
"y+	c #58020E",
"z+	c #39030B",
"A+	c #3C0D13",
"B+	c #5A252D",
"C+	c #903946",
"D+	c #CE5164",
"E+	c #F71E3C",
"F+	c #F7092B",
"G+	c #C8102A",
"H+	c #D45063",
"I+	c #EF5A6F",
"J+	c #A54553",
"K+	c #731623",
"L+	c #9E0217",
"M+	c #A10219",
"N+	c #58010D",
"O+	c #351418",
"P+	c #8F3642",
"Q+	c #E15468",
"R+	c #D45062",
"S+	c #9B3C49",
"T+	c #7B303A",
"U+	c #84323D",
"V+	c #AF4251",
"W+	c #E3566B",
"X+	c #C84F61",
"Y+	c #7F1A28",
"Z+	c #5B0410",
"`+	c #55030F",
" @	c #43020B",
".@	c #360B10",
"+@	c #3F151B",
"@@	c #692A32",
"#@	c #9F404D",
"$@	c #D9596B",
"%@	c #F7A5B0",
"&@	c #F82A46",
"*@	c #F70729",
"=@	c #C3011D",
"-@	c #A93041",
";@	c #E95C70",
">@	c #E15569",
",@	c #8F3A46",
"'@	c #47171D",
")@	c #36090F",
"!@	c #2F0F13",
"~@	c #56242B",
"{@	c #B04352",
"]@	c #E55569",
"^@	c #D74F62",
"/@	c #DA5064",
"(@	c #B64655",
"_@	c #732B35",
":@	c #4E1F26",
"<@	c #451C21",
"[@	c #4C1A21",
"}@	c #5A262D",
"|@	c #7E333E",
"1@	c #A3414F",
"2@	c #BC4C5C",
"3@	c #E36D7E",
"4@	c #E3445B",
"5@	c #EE092A",
"6@	c #CD011E",
"7@	c #94182A",
"8@	c #D15365",
"9@	c #D95466",
"0@	c #9D3E4C",
"a@	c #702D36",
"b@	c #6D2B34",
"c@	c #953946",
"d@	c #D65364",
"e@	c #FAC1CA",
"f@	c #F17C8D",
"g@	c #EE7E8D",
"h@	c #ED7E8D",
"i@	c #EC7E8D",
"j@	c #EB7D8C",
"k@	c #EA7B8A",
"l@	c #EA7A8A",
"m@	c #DD7382",
"n@	c #C0606D",
"o@	c #A54B57",
"p@	c #A04350",
"q@	c #A2404E",
"r@	c #AF4655",
"s@	c #D25467",
"t@	c #DB5568",
"u@	c #B5132A",
"v@	c #CF011E",
"w@	c #EE0627",
"x@	c #FC0629",
"y@	c #CD0320",
"z@	c #7A0F1E",
"A@	c #B64958",
"B@	c #E5596D",
"C@	c #CD5062",
"D@	c #C94E5F",
"E@	c #DC5467",
"F@	c #F47789",
"G@	c #F793A1",
"H@	c #EF8B99",
"I@	c #EF94A1",
"J@	c #F88394",
"K@	c #F77689",
"L@	c #F67083",
"M@	c #F5697D",
"N@	c #F56378",
"O@	c #F56075",
"P@	c #F56176",
"Q@	c #F5657A",
"R@	c #F7677B",
"S@	c #F3687B",
"T@	c #DD7482",
"U@	c #D46F7D",
"V@	c #D76775",
"W@	c #AB404E",
"X@	c #860C1D",
"Y@	c #B4021C",
"Z@	c #A7031A",
"`@	c #550E17",
" #	c #A44250",
".#	c #F28493",
"+#	c #EF9BA7",
"@#	c #F792A0",
"##	c #F96B7F",
"$#	c #F84A63",
"%#	c #FA3551",
"&#	c #F72240",
"*#	c #F71737",
"=#	c #F71233",
"-#	c #F70E2F",
";#	c #F70B2C",
">#	c #F70A2C",
",#	c #F70D2E",
"'#	c #F70F30",
")#	c #F71535",
"!#	c #F81F3E",
"~#	c #FB314E",
"{#	c #F8425C",
"]#	c #E24F64",
"^#	c #C76471",
"/#	c #E16D7C",
"(#	c #DA5A6C",
"_#	c #963E4A",
":#	c #741422",
"<#	c #73000F",
"[#	c #490009",
"}#	c #47141B",
"|#	c #A34250",
"1#	c #F68B9B",
"2#	c #EF93A0",
"3#	c #EE9DA9",
"4#	c #F88596",
"5#	c #F95A70",
"6#	c #F92E4A",
"7#	c #F60427",
"8#	c #FB1838",
"9#	c #EA1231",
"0#	c #B94857",
"a#	c #EC7D8D",
"b#	c #DD5C6E",
"c#	c #9D414E",
"d#	c #561820",
"e#	c #43151B",
"f#	c #652A33",
"g#	c #B74A59",
"h#	c #F9B1BB",
"i#	c #EE97A3",
"j#	c #F09BA7",
"k#	c #F97689",
"l#	c #FA445D",
"m#	c #F71C3B",
"n#	c #F60829",
"o#	c #F00123",
"p#	c #9D1C2E",
"q#	c #BC5A68",
"r#	c #E35F72",
"s#	c #B24C5A",
"t#	c #903D49",
"u#	c #A94452",
"v#	c #DB6071",
"w#	c #EF8C99",
"x#	c #F29EA9",
"y#	c #FA7587",
"z#	c #F93B56",
"A#	c #F71334",
"B#	c #E70324",
"C#	c #831020",
"D#	c #964852",
"E#	c #E55E71",
"F#	c #E76C7D",
"G#	c #F98C9B",
"H#	c #FA4760",
"I#	c #DC0422",
"J#	c #690D1A",
"K#	c #833F49",
"L#	c #EE99A5",
"M#	c #F97C8E",
"N#	c #F82B49",
"O#	c #A9021A",
"P#	c #490F17",
"Q#	c #8A404A",
"R#	c #EA8F9C",
"S#	c #F87D8E",
"T#	c #F92846",
"U#	c #51010B",
"V#	c #441C22",
"W#	c #9F4955",
"X#	c #F7C9CF",
"Y#	c #EF8594",
"Z#	c #FA3853",
"`#	c #F80629",
" $	c #C70420",
".$	c #5D020E",
"+$	c #2D1013",
"@$	c #653038",
"#$	c #E68592",
"$$	c #F8566D",
"%$	c #BC041E",
"&$	c #54020D",
"*$	c #321317",
"=$	c #51282D",
"-$	c #994652",
";$	c #E17987",
">$	c #FB324E",
",$	c #DC0624",
"'$	c #9A0218",
")$	c #4A040E",
"!$	c #32161A",
"~$	c #592C32",
"{$	c #90434E",
"]$	c #D26271",
"^$	c #E47785",
"/$	c #E36072",
"($	c #FA1E3D",
"_$	c #E90626",
":$	c #B0041C",
"<$	c #60020F",
"[$	c #32090D",
"}$	c #3B1C20",
"|$	c #633138",
"1$	c #9F4B57",
"2$	c #DA7483",
"3$	c #F6415B",
"4$	c #BF041E",
"5$	c #740212",
"6$	c #3A070E",
"7$	c #35171A",
"8$	c #4A262A",
"9$	c #733740",
"0$	c #B25864",
"a$	c #E56375",
"b$	c #F02C48",
"c$	c #CA0521",
"d$	c #800213",
"e$	c #42050D",
"f$	c #311216",
"g$	c #452429",
"h$	c #68343B",
"i$	c #914550",
"j$	c #CA6E7B",
"k$	c #D26D7C",
"l$	c #CF2E45",
"m$	c #FC0D2F",
"n$	c #D90523",
"o$	c #920217",
"p$	c #4A040D",
"q$	c #331014",
"r$	c #412226",
"s$	c #5F2F36",
"t$	c #8A434D",
"u$	c #C26B77",
"v$	c #D97986",
"w$	c #C74053",
"x$	c #FD0E30",
"y$	c #62000E",
"z$	c #31070D",
"A$	c #351B1F",
"B$	c #522A2F",
"C$	c #7A3C45",
"D$	c #AA535F",
"E$	c #EEA2AC",
"F$	c #BE4A59",
"G$	c #E40625",
"H$	c #970317",
"I$	c #4A0710",
"J$	c #371419",
"K$	c #4C272C",
"L$	c #743942",
"M$	c #A04F5B",
"N$	c #CD6574",
"O$	c #B45F6A",
"P$	c #DE0C29",
"Q$	c #FA0427",
"R$	c #E60625",
"S$	c #830314",
"T$	c #300B10",
"U$	c #3D2226",
"V$	c #66353C",
"W$	c #9A4D57",
"X$	c #CB6573",
"Y$	c #F5BCC4",
"Z$	c #ED929F",
"`$	c #EE94A1",
" %	c #E39DA7",
".%	c #E08B96",
"+%	c #E0818E",
"@%	c #C5737E",
"#%	c #A6303F",
"$%	c #F30123",
"%%	c #AA031A",
"&%	c #390B11",
"*%	c #47272B",
"=%	c #7A3E46",
"-%	c #B65C68",
";%	c #E37382",
">%	c #F5BFC7",
",%	c #EAAFB7",
"'%	c #F0919E",
")%	c #F7788A",
"!%	c #F7667A",
"~%	c #F84B64",
"{%	c #F9405A",
"]%	c #F74B64",
"^%	c #ED3F57",
"/%	c #B94756",
"(%	c #96545C",
"_%	c #C90924",
":%	c #F90426",
"<%	c #EE0526",
"[%	c #800516",
"}%	c #392022",
"|%	c #783E46",
"1%	c #BF616E",
"2%	c #E89BA6",
"3%	c #FB6B7F",
"4%	c #F92F4C",
"5%	c #F71636",
"6%	c #F60B2C",
"7%	c #F80A2B",
"8%	c #F20627",
"9%	c #980D20",
"0%	c #A6606A",
"a%	c #BE6D78",
"b%	c #8C333F",
"c%	c #DC0221",
"d%	c #F70528",
"e%	c #F10526",
"f%	c #9E0A1E",
"g%	c #59393D",
"h%	c #B15C68",
"i%	c #EBB3BB",
"j%	c #F2576D",
"k%	c #F81B3A",
"l%	c #FB0528",
"m%	c #CE021F",
"n%	c #560A14",
"o%	c #834A52",
"p%	c #E37B88",
"q%	c #9E6068",
"r%	c #8B2130",
"s%	c #E20121",
"t%	c #E80324",
"u%	c #A02F3E",
"v%	c #BF707B",
"w%	c #D7828E",
"x%	c #F2435C",
"y%	c #9B0217",
"z%	c #361519",
"A%	c #874B53",
"B%	c #DF7886",
"C%	c #DC7D8B",
"D%	c #845258",
"E%	c #8E1425",
"F%	c #DD0121",
"G%	c #FA072A",
"H%	c #F01231",
"I%	c #BF515F",
"J%	c #DE818E",
"K%	c #F5BDC5",
"L%	c #DC919B",
"M%	c #F83A55",
"N%	c #DE0524",
"O%	c #610411",
"P%	c #45292D",
"Q%	c #A65A65",
"R%	c #EC8090",
"S%	c #CD6F7D",
"T%	c #79464E",
"U%	c #8C1122",
"V%	c #D80220",
"W%	c #F90F30",
"X%	c #F82543",
"Y%	c #D85B6C",
"Z%	c #D88692",
"`%	c #EE98A4",
" &	c #E9A1AB",
".&	c #F6687C",
"+&	c #F81938",
"@&	c #E70625",
"#&	c #880014",
"$&	c #3A1116",
"%&	c #6D3E46",
"&&	c #C96E7B",
"*&	c #FAA4AF",
"=&	c #C56C79",
"-&	c #74484D",
";&	c #7D1322",
">&	c #C3021E",
",&	c #F00527",
"'&	c #FA2342",
")&	c #F5445D",
"!&	c #F67D8E",
"~&	c #F9586F",
"{&	c #F8213F",
"]&	c #FA0628",
"^&	c #970217",
"/&	c #35060C",
"(&	c #49292D",
"_&	c #9B5660",
":&	c #E57E8D",
"<&	c #C36D79",
"[&	c #75494F",
"}&	c #671C26",
"|&	c #AF021B",
"1&	c #E10323",
"2&	c #F70C2D",
"3&	c #3B080F",
"4&	c #372426",
"5&	c #79454D",
"6&	c #CF7582",
"7&	c #F9ABB8",
"8&	c #CB6F7D",
"9&	c #865259",
"0&	c #55272D",
"a&	c #7B091A",
"b&	c #BC021D",
"c&	c #E60524",
"d&	c #D50522",
"e&	c #820214",
"f&	c #330A10",
"g&	c #3B2629",
"h&	c #6B3D43",
"i&	c #B46570",
"j&	c #F39CA9",
"k&	c #D97886",
"l&	c #995A62",
"m&	c #5A393D",
"n&	c #531820",
"o&	c #7D0717",
"p&	c #B0021B",
"q&	c #D70422",
"r&	c #D10422",
"s&	c #960217",
"t&	c #53020D",
"u&	c #311115",
"v&	c #432B2E",
"w&	c #74424A",
"x&	c #AF636D",
"y&	c #E48290",
"z&	c #E27E8C",
"A&	c #B76773",
"B&	c #7C4D53",
"C&	c #4F3237",
"D&	c #47181E",
"E&	c #5A0914",
"F&	c #780414",
"G&	c #9D0117",
"H&	c #B1021B",
"I&	c #BC031D",
"J&	c #C6031F",
"K&	c #C4041F",
"L&	c #B7031D",
"M&	c #A10218",
"N&	c #7A0112",
"O&	c #4B050F",
"P&	c #310D12",
"Q&	c #321F21",
"R&	c #543338",
"S&	c #854C54",
"T&	c #BE6C78",
"U&	c #EEA4AE",
"V&	c #D67986",
"W&	c #AC626D",
"X&	c #7D4C53",
"Y&	c #56383C",
"Z&	c #43292C",
"`&	c #39161B",
" *	c #3C1016",
".*	c #3E0D14",
"+*	c #410A12",
"@*	c #3F0910",
"#*	c #370C12",
"$*	c #361014",
"%*	c #3D282A",
"&*	c #553438",
"**	c #724248",
"=*	c #9F5B65",
"-*	c #D37A86",
";*	c #F5AAB4",
">*	c #D37985",
",*	c #B26670",
"'*	c #95565F",
")*	c #794850",
"!*	c #633C41",
"~*	c #58353A",
"{*	c #513136",
"]*	c #4E2F34",
"^*	c #503135",
"/*	c #57363A",
"(*	c #643C42",
"_*	c #7D4850",
":*	c #9E5C65",
"<*	c #C0707B",
"[*	c #E48996",
"}*	c #E9A2AC",
"|*	c #D47C87",
"1*	c #C1707B",
"2*	c #B66A75",
"3*	c #AF6670",
"4*	c #AA636D",
"5*	c #AB646E",
"6*	c #B46973",
"7*	c #D27B87",
"8*	c #E68795",
"9*	c #F6A6B0",
"                                                                    . + @ # $ $ % &                   ",
"                                                                * = - ; > , ' ' ) ! ~ { ]             ",
"                                        ^ / ( _ : < [           } | 1 2 3 4 3 3 3 5 6 7 8 9           ",
"                                        0 a b c d e f         g h i j k l l l l l m n o p q           ",
"                                      r s t j u v w x y     z A B 4 l l l l l l l m C D E F           ",
"                      G H I J       K _ L t l m C M N O     _ P Q k l l l l l l l R S T U V           ",
"                    W X Y Z `  .    _ ..l l l +.@.#.$.%.  _ &.*.k l l l l l l l m =.-.;.>.,.          ",
"                  '.).!.~.{.].^./.  (._.l l l :.<.[.}.|.  _ 1.k k l l l l l l m 2.3.4.5.6.            ",
"                  7.8.Q 9.0.a.b.c.  d.e.f.l m :.g.h.i.j.  k.l.t l l l l l l m =.m.n.o.p.q.            ",
"                  r.s.*.l 2.t.u.v.w.x.y.z.+.=.S A.B.C.D.  E.F.t l l l l l +.:.G.H.I.J.K.              ",
"                  L.M.N.l 2.O.P.Q.R.S.T.U.V.W.X.Y.Z.`.     +.+t l l l +.=.+.++@+#+$+%+&+              ",
"        *+=+      -+;+>+m =.,+'+)+!+  ~+{+]+^+/+(+_+:+    <+[+2.=.=.:.}+|+1+2+3+4+5+6+                ",
"      7+8+9+0+a+b+c+d+e+f+=.g+h+i+j+  k+l+m+n+o+p+q+      r+s+t+u+v+w+x+y+z+A+B+C+D+                  ",
"      _ E+F+V.G+H+I+J+K+L+M+N+O+P+Q+    R+S+T+U+V+W+      X+Y+Z+2+`+ @.@+@4+@@#@$@                    ",
"    %@&@*@u v =@-@;@>@,@'@)@!@~@{@        ]@^@/@            (@_@:@<@[@}@|@1@2@3@                      ",
"    4@5@l m +.6@7@8@  9@0@a@b@c@d@        e@f@g@h@i@j@k@k@l@m@n@o@p@q@r@s@                            ",
"    t@u@v@w@x@y@z@A@    B@C@D@E@    F@G@H@I@J@K@L@M@N@O@P@Q@R@S@T@U@V@                                ",
"      W@X@Y@m.Z@`@ #            .#+#@###$#%#&#*#=#-#;#>#,#'#)#!#~#{#]#^#/#                            ",
"      (#_#:#<#[#}#|#      1#2#3#4#5#6#'#t 3 j 9.t t 7#7#7#t t 9.7#,#8#9#0#a#                          ",
"        b#c#d#e#f#g#  h#i#j#k#l#m#n#j t k l l l l l l l l l l l l k +.o#p#q#                          ",
"          r#s#t#u#v#w#x#y#z#A#t j k l l l l l l l l l l l l l l l l +.B#C#D#                          ",
"              E#F#i#G#H#A#9.t k l l l l l l l l l l l l l l l l l l 2.I#J#K#                          ",
"                L#M#N#l 9.*.l l l l l l l l l l l l l l l l l l l +.n O#P#Q#                          ",
"              R#S#T#t k l l l l l l l l l l l l l l l l l l l l m :.++U#V#W#                          ",
"            X#Y#Z#l k l l l l l l l l l l l l l l l l l l l l 2.`# $.$+$@$                            ",
"            #$$$'#t l l l l l l l l l l l l l l l l l l l m :.m %$&$*$=$-$                            ",
"          _ ;$>$7#l l l l l l l l l l l l l l l l l l m 2.2.,$'$)$!$~${$]$                            ",
"          ^$/$($t l l l l l l l l l l l l l l l l l 2.:._$:$<$[$}$|$1$2$                              ",
"          _ 3$L t l l l l l l l l l l l l l l l +.:.w@4$5$6$7$8$9$0$                                  ",
"          a$b$,#k l l l l l l l l l l l l l m :.n c$d$e$f$g$h$i$j$                                    ",
"          k$l$m$k l l l l l l l l l l l l +.m n$o$p$q$r$s$t$u$                                        ",
"          v$w$x$*.l l l l l l l l l l l :.C g.y$z$A$B$C$D$                                            ",
"          E$F$;#m l l l l l l l l l m +.G$H$I$J$K$L$M$N$                                              ",
"            O$P$Q$l l l l l l l l l 2.R$S$T$U$V$W$X$        Y$Z$`$ %.%_ +%_                           ",
"            @%#%$%m l l l l l l l m l %%&%*%=%-%;%      >%,%'%)%!%~%{%]%^%/%                          ",
"              (%_%:%l l l l l l l +.<%[%}%|%1%          2%3%4%5%6%k k 7%8%9%0%                        ",
"              a%b%c%d%m l l l l l m e%f%g%h%          i%j%k%7#t 7#k k l%m%n%o%p%                      ",
"                q%r%s%l m l l l l l l t%u%v%          w%x%f.t l l l m :.y%z%A%B%                      ",
"                C%D%E%F%C m l l l l l G%H%I%J%      K%L%M%Q l l l m 2.N%O%P%Q%R%                      ",
"                  S%T%U%V%n +.l l l l Q W%X%Y%Z%  `% &.&+&7#l l l :.@&#&$&%&&&*&                      ",
"                    =&-&;&>&,&+.m l l l l -#'&)&!&_ ~&{&l 2 l l ]&w@^&/&(&_&:&                        ",
"                      <&[&}&|&1&C +.m l l k l 2&)#)#>#k l l +.=._$^&3&4&5&6&7&                        ",
"                        8&9&0&a&b&c&C R 2.m m k t 9.k m 2.=.n d&e&f&g&h&i&j&                          ",
"                          k&l&m&n&o&p&q&O.C R =.=.x@=.R w@r&s&t&u&v&w&x&y&                            ",
"                            z&A&B&C&D&E&F&G&H&I&J&K&L&M&N&O&P&Q&R&S&T&U&                              ",
"                                V&W&X&Y&Z&`& *.*+*@*#*$*!$%*&***=*-*;*                                ",
"                                    >*,*'*)*!*~*{*]*^*/*(*_*:*<*[*                                    ",
"                                        }*|*1*2*3*4*5*6*v%7*8*9*                                      ",
"                                                                                                      "};
